<mxfile host="app.diagrams.net" modified="2023-11-18T16:20:29.915Z" agent="Mozilla/5.0 (Windows NT 10.0; Win64; x64) AppleWebKit/537.36 (KHTML, like Gecko) Chrome/119.0.0.0 Safari/537.36 Edg/119.0.0.0" etag="TsnpoVdIt0UYho1G-Inl" version="22.1.3" type="device">
  <diagram name="Страница — 1" id="YmoKRUBt8WqDrBZ5dWxg">
    <mxGraphModel dx="2853" dy="1163" grid="1" gridSize="10" guides="1" tooltips="1" connect="1" arrows="1" fold="1" page="1" pageScale="1" pageWidth="827" pageHeight="1169" math="0" shadow="0">
      <root>
        <mxCell id="0" />
        <mxCell id="1" parent="0" />
        <mxCell id="K--w75yVvxmzgUsPihoR-3" value="Десктопное приложение&lt;br&gt;Требования:&amp;nbsp;&lt;br&gt;ОС: Windows 7 или старше&lt;br&gt;RAM: не менее 2 Гб&lt;br&gt;" style="verticalAlign=top;align=left;spacingTop=8;spacingLeft=2;spacingRight=12;shape=cube;size=10;direction=south;fontStyle=4;html=1;whiteSpace=wrap;" parent="1" vertex="1">
          <mxGeometry x="150" y="220" width="620" height="505" as="geometry" />
        </mxCell>
        <mxCell id="K--w75yVvxmzgUsPihoR-8" value="&lt;div style=&quot;&quot;&gt;&lt;b style=&quot;border-color: var(--border-color);&quot;&gt;3. Определение интерфейсов&lt;/b&gt;&lt;/div&gt;&lt;b style=&quot;border-color: var(--border-color); color: rgb(0, 0, 0); font-family: Helvetica; font-size: 12px; font-style: normal; font-variant-ligatures: normal; font-variant-caps: normal; letter-spacing: normal; orphans: 2; text-indent: 0px; text-transform: none; widows: 2; word-spacing: 0px; -webkit-text-stroke-width: 0px; background-color: rgb(251, 251, 251); text-decoration-thickness: initial; text-decoration-style: initial; text-decoration-color: initial;&quot;&gt;Интерфейс для &quot;Базы данных&quot;&lt;/b&gt;&lt;span style=&quot;color: rgb(0, 0, 0); font-family: Helvetica; font-size: 12px; font-style: normal; font-variant-ligatures: normal; font-variant-caps: normal; font-weight: 400; letter-spacing: normal; orphans: 2; text-indent: 0px; text-transform: none; widows: 2; word-spacing: 0px; -webkit-text-stroke-width: 0px; background-color: rgb(251, 251, 251); text-decoration-thickness: initial; text-decoration-style: initial; text-decoration-color: initial; float: none; display: inline !important;&quot;&gt;:&lt;/span&gt;&lt;br style=&quot;border-color: var(--border-color); color: rgb(0, 0, 0); font-family: Helvetica; font-size: 12px; font-style: normal; font-variant-ligatures: normal; font-variant-caps: normal; font-weight: 400; letter-spacing: normal; orphans: 2; text-indent: 0px; text-transform: none; widows: 2; word-spacing: 0px; -webkit-text-stroke-width: 0px; background-color: rgb(251, 251, 251); text-decoration-thickness: initial; text-decoration-style: initial; text-decoration-color: initial;&quot;&gt;&lt;b style=&quot;border-color: var(--border-color); color: rgb(0, 0, 0); font-family: Helvetica; font-size: 12px; font-style: normal; font-variant-ligatures: normal; font-variant-caps: normal; letter-spacing: normal; orphans: 2; text-indent: 0px; text-transform: none; widows: 2; word-spacing: 0px; -webkit-text-stroke-width: 0px; background-color: rgb(251, 251, 251); text-decoration-thickness: initial; text-decoration-style: initial; text-decoration-color: initial;&quot;&gt;Название интерфейса&lt;/b&gt;&lt;span style=&quot;color: rgb(0, 0, 0); font-family: Helvetica; font-size: 12px; font-style: normal; font-variant-ligatures: normal; font-variant-caps: normal; font-weight: 400; letter-spacing: normal; orphans: 2; text-indent: 0px; text-transform: none; widows: 2; word-spacing: 0px; -webkit-text-stroke-width: 0px; background-color: rgb(251, 251, 251); text-decoration-thickness: initial; text-decoration-style: initial; text-decoration-color: initial; float: none; display: inline !important;&quot;&gt;: IDB&lt;/span&gt;&lt;br style=&quot;border-color: var(--border-color); color: rgb(0, 0, 0); font-family: Helvetica; font-size: 12px; font-style: normal; font-variant-ligatures: normal; font-variant-caps: normal; font-weight: 400; letter-spacing: normal; orphans: 2; text-indent: 0px; text-transform: none; widows: 2; word-spacing: 0px; -webkit-text-stroke-width: 0px; background-color: rgb(251, 251, 251); text-decoration-thickness: initial; text-decoration-style: initial; text-decoration-color: initial;&quot;&gt;&lt;b style=&quot;border-color: var(--border-color); color: rgb(0, 0, 0); font-family: Helvetica; font-size: 12px; font-style: normal; font-variant-ligatures: normal; font-variant-caps: normal; letter-spacing: normal; orphans: 2; text-indent: 0px; text-transform: none; widows: 2; word-spacing: 0px; -webkit-text-stroke-width: 0px; background-color: rgb(251, 251, 251); text-decoration-thickness: initial; text-decoration-style: initial; text-decoration-color: initial;&quot;&gt;Описание:&lt;/b&gt;&lt;span style=&quot;color: rgb(0, 0, 0); font-family: Helvetica; font-size: 12px; font-variant-ligatures: normal; font-variant-caps: normal; letter-spacing: normal; orphans: 2; text-indent: 0px; text-transform: none; widows: 2; word-spacing: 0px; -webkit-text-stroke-width: 0px; background-color: rgb(251, 251, 251); text-decoration-thickness: initial; text-decoration-style: initial; text-decoration-color: initial; float: none; display: inline !important;&quot;&gt;&amp;nbsp;интерфейс обеспечивает доступ к данным в базе данных&lt;br&gt;&lt;b style=&quot;font-style: normal;&quot;&gt;Операции: &lt;/b&gt;&lt;i&gt;SELECT FROM {table_name} * WHERE {hardware_name = OS Output}&lt;/i&gt;&lt;/span&gt;&lt;span style=&quot;color: rgb(0, 0, 0); font-family: Helvetica; font-size: 12px; font-style: normal; font-variant-ligatures: normal; font-variant-caps: normal; font-weight: 400; letter-spacing: normal; orphans: 2; text-indent: 0px; text-transform: none; widows: 2; word-spacing: 0px; -webkit-text-stroke-width: 0px; background-color: rgb(251, 251, 251); text-decoration-thickness: initial; text-decoration-style: initial; text-decoration-color: initial; float: none; display: inline !important;&quot;&gt;&amp;nbsp;&lt;/span&gt;" style="shape=note;size=20;whiteSpace=wrap;html=1;verticalAlign=top;horizontal=1;align=left;" parent="1" vertex="1">
          <mxGeometry x="-310" y="630" width="310" height="115" as="geometry" />
        </mxCell>
        <mxCell id="K--w75yVvxmzgUsPihoR-15" style="edgeStyle=orthogonalEdgeStyle;rounded=0;orthogonalLoop=1;jettySize=auto;html=1;dashed=1;" parent="1" source="K--w75yVvxmzgUsPihoR-9" target="K--w75yVvxmzgUsPihoR-13" edge="1">
          <mxGeometry relative="1" as="geometry" />
        </mxCell>
        <mxCell id="K--w75yVvxmzgUsPihoR-89" style="edgeStyle=orthogonalEdgeStyle;rounded=0;orthogonalLoop=1;jettySize=auto;html=1;dashed=1;" parent="1" source="K--w75yVvxmzgUsPihoR-9" target="K--w75yVvxmzgUsPihoR-87" edge="1">
          <mxGeometry relative="1" as="geometry" />
        </mxCell>
        <mxCell id="K--w75yVvxmzgUsPihoR-94" style="edgeStyle=orthogonalEdgeStyle;rounded=0;orthogonalLoop=1;jettySize=auto;html=1;dashed=1;" parent="1" source="K--w75yVvxmzgUsPihoR-9" target="K--w75yVvxmzgUsPihoR-90" edge="1">
          <mxGeometry relative="1" as="geometry">
            <Array as="points">
              <mxPoint x="460" y="360" />
            </Array>
          </mxGeometry>
        </mxCell>
        <mxCell id="K--w75yVvxmzgUsPihoR-9" value="«executable»&lt;br&gt;&lt;b&gt;AInPC.exe&lt;/b&gt;" style="html=1;dropTarget=0;whiteSpace=wrap;" parent="1" vertex="1">
          <mxGeometry x="340" y="240" width="140" height="60" as="geometry" />
        </mxCell>
        <mxCell id="K--w75yVvxmzgUsPihoR-10" value="" style="shape=module;jettyWidth=8;jettyHeight=4;" parent="K--w75yVvxmzgUsPihoR-9" vertex="1">
          <mxGeometry x="1" width="20" height="20" relative="1" as="geometry">
            <mxPoint x="-27" y="7" as="offset" />
          </mxGeometry>
        </mxCell>
        <mxCell id="K--w75yVvxmzgUsPihoR-11" value="&lt;b&gt;1. Определение предметной области&lt;br&gt;Предметная область: &lt;/b&gt;ИС для диагностики аппаратного обеспечения компьютера.&lt;br&gt;&lt;b&gt;Цель диаграммы: &lt;/b&gt;определение основных модулей приложения и выявление зависимостей между компонентами&lt;br&gt;&lt;b&gt;Ограничения и объем: &lt;/b&gt;включить только основные компоненты, т.е. то, что будет на устройстве пользователя, исключая тех. поддержку" style="shape=note;size=20;whiteSpace=wrap;html=1;verticalAlign=top;align=left;" parent="1" vertex="1">
          <mxGeometry x="-310" y="40" width="410" height="115" as="geometry" />
        </mxCell>
        <mxCell id="K--w75yVvxmzgUsPihoR-12" value="&lt;b&gt;2. Выделение компонентов&lt;br&gt;AInPC.exe - &lt;/b&gt;основной исполняемый файл, который будет запускать главное окно - MainWindow.&lt;br&gt;&lt;b&gt;MainWindow - &lt;/b&gt;главное окно программы, в котором будет выводиться как неизменяемая информация об устройстве, которая получается посредством ОС и базы данных, а также информация с датчиков оборудования. Данное окно инициирует доступ к остальным компонентам программы: графическая интерпретация данных, выгрузка отчета, запуск терминала.&lt;br&gt;&lt;b&gt;GraphsWindow &lt;/b&gt;- окно программы, которое содержит в себе графическую интерпретацию данных с датчиков устройств.&lt;br&gt;&lt;b&gt;База данных - &lt;/b&gt;этот компонент отвечает за хранение информации об устройствах ПК, которую нельзя получить посредством запроса в систему: ссылки на производителя, официальный драйвер и т.д.&lt;br&gt;&lt;b&gt;Выгрузка отчета - &lt;/b&gt;данный компонент отвечает за формирование и выгрузку основной информации о системе в отдельный файл.&lt;br&gt;&lt;b&gt;Доступ к терминалу - &lt;/b&gt;данный компонент обеспечивает пользователю доступ к терминалу, где тот сможет вводить необходимые ему дополнительные команды.&lt;br&gt;&lt;b&gt;dll_fetch &lt;/b&gt;- компонент, содержащий в себе набор функций, которые позволяют программе получать доступ к данным хранящимся в Lib.dll и представлять их в виде, удобном для работы на ЯП&lt;br&gt;&lt;b&gt;Lib.dll&lt;/b&gt; - библиотека, получающая данные напрямую с датчиков устройства&lt;br&gt;&lt;b&gt;global_import&lt;/b&gt; - набор модулей и библиотек, используемых в рамках всего ПО&lt;br&gt;&lt;b&gt;additional_classes&lt;/b&gt; - компонент, содержащий классы, используемые в большой мере для дополнительных функций ПО, например, добавление гиперссылок" style="shape=note;size=20;whiteSpace=wrap;html=1;verticalAlign=top;align=left;" parent="1" vertex="1">
          <mxGeometry x="-310" y="180" width="410" height="430" as="geometry" />
        </mxCell>
        <mxCell id="K--w75yVvxmzgUsPihoR-19" style="edgeStyle=orthogonalEdgeStyle;rounded=0;orthogonalLoop=1;jettySize=auto;html=1;dashed=1;" parent="1" source="K--w75yVvxmzgUsPihoR-13" target="K--w75yVvxmzgUsPihoR-16" edge="1">
          <mxGeometry relative="1" as="geometry" />
        </mxCell>
        <mxCell id="K--w75yVvxmzgUsPihoR-22" style="edgeStyle=orthogonalEdgeStyle;rounded=0;orthogonalLoop=1;jettySize=auto;html=1;dashed=1;" parent="1" source="K--w75yVvxmzgUsPihoR-13" target="K--w75yVvxmzgUsPihoR-20" edge="1">
          <mxGeometry relative="1" as="geometry" />
        </mxCell>
        <mxCell id="K--w75yVvxmzgUsPihoR-56" style="edgeStyle=orthogonalEdgeStyle;rounded=0;orthogonalLoop=1;jettySize=auto;html=1;endArrow=none;endFill=0;" parent="1" source="K--w75yVvxmzgUsPihoR-13" edge="1">
          <mxGeometry relative="1" as="geometry">
            <mxPoint x="530" y="540" as="targetPoint" />
            <Array as="points">
              <mxPoint x="410" y="540" />
            </Array>
          </mxGeometry>
        </mxCell>
        <mxCell id="K--w75yVvxmzgUsPihoR-68" style="edgeStyle=orthogonalEdgeStyle;rounded=0;orthogonalLoop=1;jettySize=auto;html=1;endArrow=none;endFill=0;" parent="1" source="K--w75yVvxmzgUsPihoR-13" edge="1">
          <mxGeometry relative="1" as="geometry">
            <mxPoint x="360" y="540" as="targetPoint" />
            <Array as="points">
              <mxPoint x="380" y="540" />
            </Array>
          </mxGeometry>
        </mxCell>
        <mxCell id="K--w75yVvxmzgUsPihoR-86" style="edgeStyle=orthogonalEdgeStyle;rounded=0;orthogonalLoop=1;jettySize=auto;html=1;dashed=1;" parent="1" source="K--w75yVvxmzgUsPihoR-13" target="K--w75yVvxmzgUsPihoR-82" edge="1">
          <mxGeometry relative="1" as="geometry">
            <Array as="points">
              <mxPoint x="400" y="640" />
            </Array>
          </mxGeometry>
        </mxCell>
        <mxCell id="K--w75yVvxmzgUsPihoR-13" value="«class»&lt;br&gt;&lt;b&gt;MainWindow&lt;/b&gt;" style="html=1;dropTarget=0;whiteSpace=wrap;" parent="1" vertex="1">
          <mxGeometry x="340" y="410" width="140" height="60" as="geometry" />
        </mxCell>
        <mxCell id="K--w75yVvxmzgUsPihoR-14" value="" style="shape=module;jettyWidth=8;jettyHeight=4;" parent="K--w75yVvxmzgUsPihoR-13" vertex="1">
          <mxGeometry x="1" width="20" height="20" relative="1" as="geometry">
            <mxPoint x="-27" y="7" as="offset" />
          </mxGeometry>
        </mxCell>
        <mxCell id="K--w75yVvxmzgUsPihoR-33" style="edgeStyle=orthogonalEdgeStyle;rounded=0;orthogonalLoop=1;jettySize=auto;html=1;endArrow=none;endFill=0;" parent="1" source="K--w75yVvxmzgUsPihoR-16" edge="1">
          <mxGeometry relative="1" as="geometry">
            <mxPoint x="490" y="540" as="targetPoint" />
            <Array as="points">
              <mxPoint x="670" y="490" />
              <mxPoint x="490" y="490" />
            </Array>
          </mxGeometry>
        </mxCell>
        <mxCell id="K--w75yVvxmzgUsPihoR-16" value="«class»&lt;br&gt;&lt;b&gt;GraphsWindow&lt;/b&gt;" style="html=1;dropTarget=0;whiteSpace=wrap;" parent="1" vertex="1">
          <mxGeometry x="600" y="410" width="140" height="60" as="geometry" />
        </mxCell>
        <mxCell id="K--w75yVvxmzgUsPihoR-17" value="" style="shape=module;jettyWidth=8;jettyHeight=4;" parent="K--w75yVvxmzgUsPihoR-16" vertex="1">
          <mxGeometry x="1" width="20" height="20" relative="1" as="geometry">
            <mxPoint x="-27" y="7" as="offset" />
          </mxGeometry>
        </mxCell>
        <mxCell id="K--w75yVvxmzgUsPihoR-20" value="«class»&lt;br&gt;&lt;b&gt;Выгрузка отчета&lt;/b&gt;" style="html=1;dropTarget=0;whiteSpace=wrap;" parent="1" vertex="1">
          <mxGeometry x="170" y="410" width="120" height="60" as="geometry" />
        </mxCell>
        <mxCell id="K--w75yVvxmzgUsPihoR-21" value="" style="shape=module;jettyWidth=8;jettyHeight=4;" parent="K--w75yVvxmzgUsPihoR-20" vertex="1">
          <mxGeometry x="1" width="20" height="20" relative="1" as="geometry">
            <mxPoint x="-27" y="7" as="offset" />
          </mxGeometry>
        </mxCell>
        <mxCell id="K--w75yVvxmzgUsPihoR-55" style="edgeStyle=orthogonalEdgeStyle;rounded=0;orthogonalLoop=1;jettySize=auto;html=1;endArrow=none;endFill=0;" parent="1" source="K--w75yVvxmzgUsPihoR-23" edge="1">
          <mxGeometry relative="1" as="geometry">
            <mxPoint x="570" y="540" as="targetPoint" />
          </mxGeometry>
        </mxCell>
        <mxCell id="K--w75yVvxmzgUsPihoR-57" style="edgeStyle=orthogonalEdgeStyle;rounded=0;orthogonalLoop=1;jettySize=auto;html=1;endArrow=none;endFill=0;" parent="1" source="K--w75yVvxmzgUsPihoR-23" edge="1">
          <mxGeometry relative="1" as="geometry">
            <mxPoint x="670" y="590" as="targetPoint" />
          </mxGeometry>
        </mxCell>
        <mxCell id="K--w75yVvxmzgUsPihoR-23" value="«component»&lt;br&gt;&lt;b&gt;dll_fetch&lt;/b&gt;" style="html=1;dropTarget=0;whiteSpace=wrap;" parent="1" vertex="1">
          <mxGeometry x="600" y="510" width="140" height="60" as="geometry" />
        </mxCell>
        <mxCell id="K--w75yVvxmzgUsPihoR-24" value="" style="shape=module;jettyWidth=8;jettyHeight=4;" parent="K--w75yVvxmzgUsPihoR-23" vertex="1">
          <mxGeometry x="1" width="20" height="20" relative="1" as="geometry">
            <mxPoint x="-27" y="7" as="offset" />
          </mxGeometry>
        </mxCell>
        <mxCell id="K--w75yVvxmzgUsPihoR-25" value="&lt;b&gt;3. Определение интерфейсов&lt;br&gt;Интерфейс для &quot;dll_fetch&quot;:&lt;br&gt;Название интерфейса: &lt;/b&gt;Ifetch&lt;br&gt;&lt;b&gt;Описание:&lt;/b&gt;&amp;nbsp;интерфейс обеспечивает нужный формат выходных данных для каждого инициирующего компонента&lt;br&gt;&lt;b&gt;Операции: &lt;/b&gt;&lt;i&gt;initialize_lib(), fetch_stats(), parse_sensor(), fetch_stats_for_graphs(), parse_sensor_for_graphs()&amp;nbsp;&lt;/i&gt;" style="shape=note;size=20;whiteSpace=wrap;html=1;verticalAlign=top;align=left;" parent="1" vertex="1">
          <mxGeometry x="-310" y="760" width="310" height="130" as="geometry" />
        </mxCell>
        <mxCell id="K--w75yVvxmzgUsPihoR-36" value="&lt;b&gt;3. Определение интерфейсов&lt;br&gt;Интерфейс для &quot;Lib.dll&quot;:&lt;br&gt;Название интерфейса: &lt;/b&gt;Idll&lt;br&gt;&lt;b&gt;Описание: &lt;/b&gt;интерфейс обеспечивает доступ к данным с датчиков устройства&lt;br&gt;&lt;b&gt;Операции: &lt;/b&gt;&lt;i&gt;Hardware.Computer.open()&lt;/i&gt;" style="shape=note;size=20;whiteSpace=wrap;html=1;verticalAlign=top;align=left;" parent="1" vertex="1">
          <mxGeometry x="-310" y="910" width="310" height="100" as="geometry" />
        </mxCell>
        <mxCell id="K--w75yVvxmzgUsPihoR-58" style="edgeStyle=orthogonalEdgeStyle;rounded=0;orthogonalLoop=1;jettySize=auto;html=1;endArrow=none;endFill=0;" parent="1" source="K--w75yVvxmzgUsPihoR-37" edge="1">
          <mxGeometry relative="1" as="geometry">
            <mxPoint x="670" y="620" as="targetPoint" />
          </mxGeometry>
        </mxCell>
        <mxCell id="K--w75yVvxmzgUsPihoR-37" value="«library»&lt;br&gt;&lt;b&gt;Lib.dll&lt;/b&gt;" style="html=1;dropTarget=0;whiteSpace=wrap;" parent="1" vertex="1">
          <mxGeometry x="600" y="630" width="140" height="60" as="geometry" />
        </mxCell>
        <mxCell id="K--w75yVvxmzgUsPihoR-38" value="" style="shape=module;jettyWidth=8;jettyHeight=4;" parent="K--w75yVvxmzgUsPihoR-37" vertex="1">
          <mxGeometry x="1" width="20" height="20" relative="1" as="geometry">
            <mxPoint x="-27" y="7" as="offset" />
          </mxGeometry>
        </mxCell>
        <mxCell id="K--w75yVvxmzgUsPihoR-45" value="" style="group;direction=west;rotation=90;" parent="1" vertex="1" connectable="0">
          <mxGeometry x="650" y="600" width="40" height="10" as="geometry" />
        </mxCell>
        <mxCell id="K--w75yVvxmzgUsPihoR-42" value="" style="rounded=0;orthogonalLoop=1;jettySize=auto;html=1;endArrow=halfCircle;endFill=0;endSize=6;strokeWidth=1;sketch=0;" parent="K--w75yVvxmzgUsPihoR-45" target="K--w75yVvxmzgUsPihoR-44" edge="1">
          <mxGeometry relative="1" as="geometry">
            <mxPoint x="20" y="25" as="sourcePoint" />
          </mxGeometry>
        </mxCell>
        <mxCell id="K--w75yVvxmzgUsPihoR-43" value="" style="rounded=0;orthogonalLoop=1;jettySize=auto;html=1;endArrow=oval;endFill=0;sketch=0;sourcePerimeterSpacing=0;targetPerimeterSpacing=0;endSize=10;" parent="K--w75yVvxmzgUsPihoR-45" target="K--w75yVvxmzgUsPihoR-44" edge="1">
          <mxGeometry relative="1" as="geometry">
            <mxPoint x="20" y="-15" as="sourcePoint" />
          </mxGeometry>
        </mxCell>
        <mxCell id="K--w75yVvxmzgUsPihoR-44" value="" style="ellipse;whiteSpace=wrap;html=1;align=center;aspect=fixed;fillColor=none;strokeColor=none;resizable=0;perimeter=centerPerimeter;rotatable=0;allowArrows=0;points=[];outlineConnect=1;rotation=90;" parent="K--w75yVvxmzgUsPihoR-45" vertex="1">
          <mxGeometry x="15" width="10" height="10" as="geometry" />
        </mxCell>
        <mxCell id="K--w75yVvxmzgUsPihoR-30" value="" style="ellipse;whiteSpace=wrap;html=1;align=center;aspect=fixed;fillColor=none;strokeColor=none;resizable=0;perimeter=centerPerimeter;rotatable=0;allowArrows=0;points=[];outlineConnect=1;" parent="1" vertex="1">
          <mxGeometry x="555" y="535" width="10" height="10" as="geometry" />
        </mxCell>
        <mxCell id="K--w75yVvxmzgUsPihoR-34" value="&lt;font style=&quot;font-size: 10px;&quot;&gt;Ifetch&lt;/font&gt;" style="text;html=1;strokeColor=none;fillColor=none;align=center;verticalAlign=middle;whiteSpace=wrap;rounded=0;" parent="1" vertex="1">
          <mxGeometry x="520" y="540" width="60" height="30" as="geometry" />
        </mxCell>
        <mxCell id="K--w75yVvxmzgUsPihoR-50" value="" style="group;direction=west;rotation=0;" parent="1" vertex="1" connectable="0">
          <mxGeometry x="530" y="535" width="40" height="10" as="geometry" />
        </mxCell>
        <mxCell id="K--w75yVvxmzgUsPihoR-51" value="" style="rounded=0;orthogonalLoop=1;jettySize=auto;html=1;endArrow=halfCircle;endFill=0;endSize=6;strokeWidth=1;sketch=0;" parent="K--w75yVvxmzgUsPihoR-50" target="K--w75yVvxmzgUsPihoR-53" edge="1">
          <mxGeometry relative="1" as="geometry">
            <mxPoint x="40" y="5" as="sourcePoint" />
          </mxGeometry>
        </mxCell>
        <mxCell id="K--w75yVvxmzgUsPihoR-52" value="" style="rounded=0;orthogonalLoop=1;jettySize=auto;html=1;endArrow=oval;endFill=0;sketch=0;sourcePerimeterSpacing=0;targetPerimeterSpacing=0;endSize=10;" parent="K--w75yVvxmzgUsPihoR-50" target="K--w75yVvxmzgUsPihoR-53" edge="1">
          <mxGeometry relative="1" as="geometry">
            <mxPoint y="5" as="sourcePoint" />
          </mxGeometry>
        </mxCell>
        <mxCell id="K--w75yVvxmzgUsPihoR-53" value="" style="ellipse;whiteSpace=wrap;html=1;align=center;aspect=fixed;fillColor=none;strokeColor=none;resizable=0;perimeter=centerPerimeter;rotatable=0;allowArrows=0;points=[];outlineConnect=1;rotation=0;" parent="K--w75yVvxmzgUsPihoR-50" vertex="1">
          <mxGeometry x="15" width="10" height="10" as="geometry" />
        </mxCell>
        <mxCell id="K--w75yVvxmzgUsPihoR-59" value="&lt;font style=&quot;font-size: 10px;&quot;&gt;Idll&lt;/font&gt;" style="text;html=1;strokeColor=none;fillColor=none;align=center;verticalAlign=middle;whiteSpace=wrap;rounded=0;" parent="1" vertex="1">
          <mxGeometry x="660" y="590" width="60" height="30" as="geometry" />
        </mxCell>
        <mxCell id="K--w75yVvxmzgUsPihoR-67" style="edgeStyle=orthogonalEdgeStyle;rounded=0;orthogonalLoop=1;jettySize=auto;html=1;endArrow=none;endFill=0;" parent="1" source="K--w75yVvxmzgUsPihoR-60" edge="1">
          <mxGeometry relative="1" as="geometry">
            <mxPoint x="330" y="540" as="targetPoint" />
          </mxGeometry>
        </mxCell>
        <mxCell id="K--w75yVvxmzgUsPihoR-60" value="«component»&lt;br&gt;&lt;b&gt;База данных&lt;/b&gt;" style="html=1;dropTarget=0;whiteSpace=wrap;" parent="1" vertex="1">
          <mxGeometry x="170" y="505.5" width="120" height="69" as="geometry" />
        </mxCell>
        <mxCell id="K--w75yVvxmzgUsPihoR-61" value="" style="shape=module;jettyWidth=8;jettyHeight=4;" parent="K--w75yVvxmzgUsPihoR-60" vertex="1">
          <mxGeometry x="1" width="20" height="20" relative="1" as="geometry">
            <mxPoint x="-27" y="7" as="offset" />
          </mxGeometry>
        </mxCell>
        <mxCell id="K--w75yVvxmzgUsPihoR-63" value="" style="group;direction=west;rotation=-90;" parent="1" vertex="1" connectable="0">
          <mxGeometry x="320" y="535" width="50" height="40" as="geometry" />
        </mxCell>
        <mxCell id="K--w75yVvxmzgUsPihoR-64" value="" style="rounded=0;orthogonalLoop=1;jettySize=auto;html=1;endArrow=halfCircle;endFill=0;endSize=6;strokeWidth=1;sketch=0;" parent="K--w75yVvxmzgUsPihoR-63" target="K--w75yVvxmzgUsPihoR-66" edge="1">
          <mxGeometry relative="1" as="geometry">
            <mxPoint y="5" as="sourcePoint" />
          </mxGeometry>
        </mxCell>
        <mxCell id="K--w75yVvxmzgUsPihoR-65" value="" style="rounded=0;orthogonalLoop=1;jettySize=auto;html=1;endArrow=oval;endFill=0;sketch=0;sourcePerimeterSpacing=0;targetPerimeterSpacing=0;endSize=10;" parent="K--w75yVvxmzgUsPihoR-63" target="K--w75yVvxmzgUsPihoR-66" edge="1">
          <mxGeometry relative="1" as="geometry">
            <mxPoint x="40" y="5" as="sourcePoint" />
          </mxGeometry>
        </mxCell>
        <mxCell id="K--w75yVvxmzgUsPihoR-66" value="" style="ellipse;whiteSpace=wrap;html=1;align=center;aspect=fixed;fillColor=none;strokeColor=none;resizable=0;perimeter=centerPerimeter;rotatable=0;allowArrows=0;points=[];outlineConnect=1;rotation=-180;" parent="K--w75yVvxmzgUsPihoR-63" vertex="1">
          <mxGeometry x="15" width="10" height="10" as="geometry" />
        </mxCell>
        <mxCell id="K--w75yVvxmzgUsPihoR-69" value="&lt;span style=&quot;font-size: 10px;&quot;&gt;IDB&lt;/span&gt;" style="text;html=1;strokeColor=none;fillColor=none;align=center;verticalAlign=middle;whiteSpace=wrap;rounded=0;" parent="K--w75yVvxmzgUsPihoR-63" vertex="1">
          <mxGeometry x="-10" y="10" width="60" height="30" as="geometry" />
        </mxCell>
        <mxCell id="K--w75yVvxmzgUsPihoR-77" value="" style="rounded=0;orthogonalLoop=1;jettySize=auto;html=1;endArrow=halfCircle;endFill=0;endSize=6;strokeWidth=1;sketch=0;" parent="1" edge="1">
          <mxGeometry relative="1" as="geometry">
            <mxPoint x="229.83" y="505.5" as="sourcePoint" />
            <mxPoint x="229.83" y="485.5" as="targetPoint" />
          </mxGeometry>
        </mxCell>
        <mxCell id="K--w75yVvxmzgUsPihoR-78" value="" style="rounded=0;orthogonalLoop=1;jettySize=auto;html=1;endArrow=oval;endFill=0;sketch=0;sourcePerimeterSpacing=0;targetPerimeterSpacing=0;endSize=10;" parent="1" edge="1">
          <mxGeometry relative="1" as="geometry">
            <mxPoint x="230" y="470" as="sourcePoint" />
            <mxPoint x="229.83" y="485.5" as="targetPoint" />
          </mxGeometry>
        </mxCell>
        <mxCell id="K--w75yVvxmzgUsPihoR-79" value="" style="ellipse;whiteSpace=wrap;html=1;align=center;aspect=fixed;fillColor=none;strokeColor=none;resizable=0;perimeter=centerPerimeter;rotatable=0;allowArrows=0;points=[];outlineConnect=1;" parent="1" vertex="1">
          <mxGeometry x="255" y="750" width="10" height="10" as="geometry" />
        </mxCell>
        <mxCell id="K--w75yVvxmzgUsPihoR-81" value="&lt;span style=&quot;font-size: 10px;&quot;&gt;IDB&lt;/span&gt;" style="text;html=1;strokeColor=none;fillColor=none;align=center;verticalAlign=middle;whiteSpace=wrap;rounded=0;" parent="1" vertex="1">
          <mxGeometry x="221" y="472" width="60" height="30" as="geometry" />
        </mxCell>
        <mxCell id="K--w75yVvxmzgUsPihoR-82" value="«class»&lt;br&gt;&lt;b&gt;Доступ к терминалу&lt;/b&gt;" style="html=1;dropTarget=0;whiteSpace=wrap;" parent="1" vertex="1">
          <mxGeometry x="170" y="610" width="140" height="60" as="geometry" />
        </mxCell>
        <mxCell id="K--w75yVvxmzgUsPihoR-83" value="" style="shape=module;jettyWidth=8;jettyHeight=4;" parent="K--w75yVvxmzgUsPihoR-82" vertex="1">
          <mxGeometry x="1" width="20" height="20" relative="1" as="geometry">
            <mxPoint x="-27" y="7" as="offset" />
          </mxGeometry>
        </mxCell>
        <mxCell id="K--w75yVvxmzgUsPihoR-87" value="«library»&lt;br&gt;&lt;b&gt;global_imports&lt;/b&gt;" style="html=1;dropTarget=0;whiteSpace=wrap;" parent="1" vertex="1">
          <mxGeometry x="600" y="240" width="140" height="60" as="geometry" />
        </mxCell>
        <mxCell id="K--w75yVvxmzgUsPihoR-88" value="" style="shape=module;jettyWidth=8;jettyHeight=4;" parent="K--w75yVvxmzgUsPihoR-87" vertex="1">
          <mxGeometry x="1" width="20" height="20" relative="1" as="geometry">
            <mxPoint x="-27" y="7" as="offset" />
          </mxGeometry>
        </mxCell>
        <mxCell id="K--w75yVvxmzgUsPihoR-90" value="«component»&lt;br&gt;&lt;b&gt;additional_classes&lt;/b&gt;" style="html=1;dropTarget=0;whiteSpace=wrap;" parent="1" vertex="1">
          <mxGeometry x="600" y="321" width="140" height="69" as="geometry" />
        </mxCell>
        <mxCell id="K--w75yVvxmzgUsPihoR-91" value="" style="shape=module;jettyWidth=8;jettyHeight=4;" parent="K--w75yVvxmzgUsPihoR-90" vertex="1">
          <mxGeometry x="1" width="20" height="20" relative="1" as="geometry">
            <mxPoint x="-27" y="7" as="offset" />
          </mxGeometry>
        </mxCell>
      </root>
    </mxGraphModel>
  </diagram>
</mxfile>
